<?xml version="1.0" encoding="UTF-8" standalone="no"?>
<!-- Created with Inkscape (http://www.inkscape.org/) -->

<svg
   width="210mm"
   height="210mm"
   viewBox="0 0 210 210"
   version="1.1"
   id="svg1"
   xml:space="preserve"
   inkscape:version="1.4.2 (ebf0e940, 2025-05-08)"
   sodipodi:docname="logo.svg"
   xmlns:inkscape="http://www.inkscape.org/namespaces/inkscape"
   xmlns:sodipodi="http://sodipodi.sourceforge.net/DTD/sodipodi-0.dtd"
   xmlns="http://www.w3.org/2000/svg"
   xmlns:svg="http://www.w3.org/2000/svg"><sodipodi:namedview
     id="namedview1"
     pagecolor="#ffffff"
     bordercolor="#000000"
     borderopacity="0.25"
     inkscape:showpageshadow="2"
     inkscape:pageopacity="0.0"
     inkscape:pagecheckerboard="0"
     inkscape:deskcolor="#d1d1d1"
     inkscape:document-units="mm"
     inkscape:zoom="0.47650176"
     inkscape:cx="312.69559"
     inkscape:cy="485.83242"
     inkscape:window-width="1440"
     inkscape:window-height="900"
     inkscape:window-x="0"
     inkscape:window-y="0"
     inkscape:window-maximized="0"
     inkscape:current-layer="layer1" /><defs
     id="defs1" /><g
     inkscape:label="Layer 1"
     inkscape:groupmode="layer"
     id="layer1"
     transform="translate(0.206586,0.94012434)"><path
       style="fill:#262724;stroke:none"
       d="m 58.216365,68.697326 c -1.134124,0 -2.962677,-0.348293 -3.973666,0.248354 -2.843833,1.678331 -0.204331,4.545742 1.986833,4.718729 -0.975556,3.370106 -1.042568,7.512712 -0.331138,10.927582 0.439876,2.111405 1.136633,4.467495 1.283112,6.576795 0.235992,3.3983 0.202689,6.86081 0.538151,10.311294 0.954452,9.81723 3.593665,21.29329 9.603028,29.30577 2.864686,3.81959 6.161999,6.82131 10.265303,9.27189 1.903151,1.1366 5.568876,1.61152 5.960499,4.13924 0.70775,4.56817 -2.877219,5.09856 -6.457208,6.04328 -8.273915,2.18339 -16.758034,5.36148 -23.841997,10.18252 -7.654246,5.20914 -12.266749,13.64245 -14.238971,22.51744 -0.592318,2.66543 -1.46521,6.223 -1.158985,8.94075 0.154662,1.37263 1.381547,2.82994 2.897464,1.73848 1.20454,-0.86727 0.944811,-4.3607 1.076202,-5.71214 0.399189,-4.10594 2.012515,-9.29384 3.973666,-12.91442 5.775712,-10.66286 15.834744,-15.39094 26.822247,-19.20605 3.56214,-1.23686 7.132602,-2.84622 10.927582,-3.14582 0.608167,7.70346 6.370653,12.06493 13.411123,13.82505 10.20824,2.55206 21.06238,-0.007 29.8025,-5.71214 2.83717,-1.85205 5.70374,-3.90246 7.78176,-6.62279 0.82783,-1.0837 1.69148,-3.55526 3.14582,-3.89088 2.51208,-0.5797 6.15489,1.96884 8.44404,2.73189 10.76085,3.58696 24.71586,7.61099 29.63692,19.04049 1.65835,3.85164 2.74217,8.7625 3.14583,12.91442 0.20906,2.15034 0.28846,4.31522 0.4967,6.4572 0.0683,0.70279 -0.22528,1.69962 0.24836,2.31797 1.88547,2.46159 3.38014,-1.256 3.2286,-2.81467 -1.27431,-13.10732 -2.7874,-26.77565 -15.89466,-33.69339 -6.4791,-3.41952 -13.52212,-5.70011 -20.36504,-8.36124 -2.91071,-1.13195 -6.95505,-1.37201 -9.43746,-3.3114 -1.9007,-1.48491 -2.26498,-4.54027 -2.48354,-6.78834 -0.35399,-3.64109 -0.49671,-7.24241 -0.49671,-10.92759 0,-1.53137 -0.32408,-3.49811 0.16557,-4.96708 0.63785,-1.91358 1.91594,-3.77131 2.89152,-5.52736 0.63083,-1.13548 1.00146,-2.86544 1.99278,-3.74453 1.58208,-1.40298 5.30873,-0.76913 7.36784,-1.65569 4.43968,-1.91153 7.91864,-5.81317 10.2653,-9.93416 2.49635,-4.383854 4.16613,-10.872094 2.98025,-15.894664 -0.47466,-2.010284 -2.56864,-3.642669 -2.89746,-5.463792 -0.19246,-1.065971 1.01253,-2.529448 1.40733,-3.476957 1.21447,-2.914721 2.20907,-5.856059 2.98025,-8.940749 2.22782,-8.911281 3.43787,-20.557535 -1.49012,-28.80908 -2.89641,-4.849803 -7.73533,-8.133007 -12.74884,-10.430874 -1.51972,-0.696525 -3.56865,-0.89942 -4.96709,-1.738479 -1.35588,-0.813533 -2.28577,-2.649934 -3.47695,-3.725312 -1.90729,-1.72185 -4.5994,-3.291041 -6.95392,-4.3048 -21.22439,-9.138307 -52.971032,-8.205464 -68.380172,11.258716 -4.999449,6.315098 -7.408306,13.775439 -6.622778,21.855164 0.224775,2.311964 1.680404,4.250927 1.986833,6.457207 0.463898,3.340063 -0.496708,6.647066 -0.496708,9.934166 M 33.463737,40.633308 c -0.794346,0.556038 -0.581359,1.889987 -0.745063,2.731896 -0.345021,1.774389 -0.59487,3.838848 -1.407341,5.463791 -2.125149,4.250291 -5.527871,4.139665 -9.354672,5.546571 -1.005371,0.36962 -1.744633,1.257717 -1.40734,2.400761 0.330732,1.120823 1.92444,1.218139 2.897465,1.407346 2.197627,0.427313 4.274532,1.002526 5.960499,2.566321 3.317903,3.077475 2.214849,6.701832 3.559743,10.430873 0.367527,1.01905 1.912097,1.382183 2.814679,0.745063 1.746716,-1.232979 1.333903,-6.664498 2.235187,-8.692395 1.624,-3.654007 4.97593,-4.088839 8.278472,-5.298217 1.171031,-0.428829 2.318558,-1.204587 1.821263,-2.649115 -0.541115,-1.571814 -3.03277,-1.24935 -4.304804,-1.6557 -1.363797,-0.435665 -2.948379,-1.308452 -3.973666,-2.317967 -2.848039,-2.804216 -1.923098,-6.235562 -3.476958,-9.437457 -0.486982,-1.003482 -1.733863,-2.056288 -2.897464,-1.241771 m 98.762163,1.738479 c -0.83234,4.518366 -0.20303,11.080939 1.65569,15.397957 1.22516,2.845537 3.42089,5.401581 4.13924,8.444041 0.78894,3.341381 0.66228,6.997768 0.66228,10.430873 -2.68621,0 -5.89244,-0.308449 -8.44405,-1.158983 -1.98818,-0.66273 -3.46633,-2.452247 -5.46379,-3.145817 -3.87108,-1.344135 -8.33548,-2.748948 -12.4177,-3.145824 -4.46584,-0.43418 -8.8992,0.312095 -12.914418,2.152408 -1.081169,0.495541 -1.901772,1.695141 -2.98025,2.069613 -1.27546,0.442865 -3.472434,-0.924754 -4.900161,-0.837266 -2.13564,0.130869 -3.528843,0.664173 -5.530713,1.08562 -1.379802,-2.32059 -3.939598,-3.465605 -6.457207,-4.3048 -5.525884,-1.841965 -11.663906,-2.212829 -17.38479,-1.158991 0,-6.778777 0.04068,-14.585955 3.973666,-20.36504 1.205319,-1.771084 2.957888,-4.254156 4.967083,-4.967082 -0.305501,0.96742 -0.783743,1.965126 -0.910633,2.980249 -0.388429,3.107413 2.125141,4.459567 4.884299,3.808092 4.052437,-0.956824 6.939197,-4.362023 10.430874,-6.291633 -0.158723,2.010541 -2.253923,4.98744 -1.241771,6.953916 1.357475,2.637383 4.663575,1.456382 6.705562,0.662283 5.198164,-2.021501 9.957029,-4.150671 14.901249,-6.622783 -0.15211,1.926746 -2.51201,5.143041 -1.32456,6.953916 1.51003,2.302794 5.81395,0.628616 7.78177,0 4.68087,-1.495278 9.09183,-3.124178 13.41112,-5.463791 2.11596,-1.146136 4.05341,-3.223935 6.45721,-3.476958 m -97.354824,7.947333 4.470374,5.463791 v 0.496708 l -4.470374,4.967083 h -0.993417 l -4.470374,-4.967083 5.463791,-5.960499 m 34.769579,11.589865 c -1.143931,0.270091 -5.041984,1.98418 -2.897466,3.559737 1.126044,0.827297 3.197874,0.01619 4.387591,-0.165574 2.200702,-0.336227 4.818129,0.293905 6.953916,0.827857 1.046092,0.261527 2.384436,0.872817 3.476958,0.496708 1.891783,-0.651262 0.775993,-3.088965 -0.496708,-3.725312 -2.883927,-1.441967 -8.301807,-1.730672 -11.424291,-0.993416 m 54.141205,6.788341 c -0.523,-6.624722 -11.66055,-6.283811 -16.39138,-5.298217 -1.47514,0.30732 -5.82136,1.405921 -4.71872,3.808092 0.97408,2.122106 5.49175,0.496708 7.20227,0.496708 1.98092,0 3.98153,-0.08246 5.96049,0 2.69363,0.112233 5.20453,0.993417 7.94734,0.993417 m -59.604996,2.566321 c 4.001039,-0.611275 8.51264,0.06853 12.417707,0.827857 1.940282,0.377276 4.332176,0.772439 5.794932,2.235187 2.30431,2.30431 1.846649,5.982767 0.993417,8.775175 -1.595013,5.22004 -4.303474,9.35454 -10.265307,9.93417 -6.738285,0.65511 -12.060281,-3.01501 -13.576694,-9.437462 -0.615777,-2.607991 -1.165733,-8.666504 0.745062,-10.844802 0.876198,-0.998859 2.628956,-1.297326 3.890883,-1.490125 m 43.213616,1.490125 c 4.17002,-0.63709 8.89817,0.734421 12.91442,1.738479 1.5798,0.39495 3.71602,0.895645 4.80151,2.235195 1.38445,1.708465 0.7122,5.408061 0.33114,7.367836 -1.12279,5.774374 -4.02216,11.190524 -10.59644,11.920994 -8.66222,0.96247 -16.888083,-4.797 -16.888083,-13.907827 0,-2.264943 -0.225723,-4.686009 1.490125,-6.457207 1.949578,-2.012466 5.295288,-2.492288 7.947328,-2.89747 m -35.762992,3.642532 c -2.958925,1.191786 -3.132087,5.061118 -2.069616,7.698978 0.638886,1.586194 2.077658,3.419314 4.056449,2.814684 5.193784,-1.58699 4.517608,-13.133507 -1.986833,-10.513662 m 57.618162,2.731896 9.43746,1.490124 c 0,2.271477 -0.25058,4.698762 0,6.953912 0.0999,0.89872 0.41225,2.21256 1.49012,2.40076 1.41395,0.24688 1.97766,-1.35009 2.64912,-2.23519 1.18453,-1.56142 2.57376,-3.011982 4.3048,-3.973665 0.9354,-0.519673 1.92001,-0.710039 2.98025,-0.827842 7.77959,-0.864396 6.97139,8.060467 5.29821,13.079977 -1.76863,5.305884 -5.50628,10.485984 -10.76201,12.748854 -1.21992,0.52524 -2.64478,0.80992 -3.97366,0.66227 -1.39827,-0.15537 -2.65356,-1.21606 -3.8081,0.0828 -1.35056,1.51938 -1.77569,4.56266 -2.7319,6.37442 -3.08959,5.85397 -7.54797,11.69297 -12.83162,15.72909 -12.68325,9.6886 -31.680967,13.30765 -45.200457,2.98025 -3.558609,-2.71838 -6.252025,-6.41591 -8.444041,-10.2653 -5.423621,-9.52441 -6.279087,-21.54361 -6.928952,-31.815264 1.60037,0.95078 3.190502,1.57066 5.037883,2.30976 1.293824,0.46409 2.574848,0.8148 3.953864,0.95758 1.413809,0.0367 2.854586,0.0711 4.268395,-0.13394 l 5.589809,-1.12062 c -0.214665,2.71909 -2.397283,7.593104 0.08279,9.768604 2.932463,2.57234 7.793066,2.42845 11.341503,1.73848 1.238352,-0.24079 4.385533,-0.59187 4.056453,-2.56633 -0.273623,-1.64176 -2.002787,-1.08178 -3.063036,-0.99342 -2.088091,0.17401 -7.761022,0.86633 -9.35467,-0.66227 -1.101738,-1.05677 -0.05359,-3.522674 0.248354,-4.801524 1.189345,-5.03723 3.171308,-9.85184 4.293403,-14.901247 0.34389,-1.547514 0.327728,-4.649644 1.832663,-5.463791 1.49634,-0.8095 4.717099,-0.937944 5.381004,0.993417 0.602763,1.753501 -0.09588,4.122839 0.08279,5.960499 0.333923,3.434592 1.89486,7.281722 4.139233,9.934162 7.970692,9.419894 23.473482,7.328844 28.726302,-3.47695 1.72388,-3.54627 1.90405,-7.031652 1.90405,-10.927586 m -19.86833,-1.324568 c -3.99611,1.447863 -2.69174,12.895804 2.98025,10.265304 5.10873,-2.36927 3.48364,-12.60729 -2.98025,-10.265304 m 42.2202,10.430874 c -3.81799,0.32264 -6.59768,4.63642 -7.86455,7.78176 -0.50115,1.24425 -1.41685,4.470384 0.91063,4.470384 1.43445,0 1.59142,-1.470874 2.06962,-2.483544 0.98208,-2.07969 2.13535,-3.90332 3.89088,-5.46379 0.76313,-0.67835 2.2393,-1.17677 2.7319,-2.06962 0.68694,-1.24509 -0.53905,-2.33655 -1.73848,-2.23519 m 24.51971,11.957964 c -0.5481,-0.200064 -1.15723,-0.479524 -1.91948,0.79089 -0.48601,0.81 -0.22491,2.07291 -0.41393,2.98025 -0.5836,2.80127 -1.65954,5.45775 -3.80809,7.45061 -1.41702,1.31434 -3.11875,1.90724 -4.96709,2.31798 -1.17509,0.26113 -2.91808,0.17501 -3.31138,1.65569 -0.27103,1.02035 0.38367,2.06262 1.32455,2.40075 3.72352,1.33815 6.88746,1.23479 9.27188,5.04987 1.68647,2.69837 0.57282,6.2395 1.90406,8.77518 0.27614,0.52597 1.23928,0.63164 1.73848,0.57949 1.29952,-0.13577 1.71174,-1.26291 1.90405,-2.40075 0.45516,-2.69307 0.58685,-5.60671 2.23519,-7.94733 1.83778,-2.60966 4.58386,-3.04311 7.28505,-4.13924 0.92984,-0.37733 1.91746,-1.19036 1.73848,-2.31797 -0.29611,-1.86543 -5.70858,-2.52227 -7.20227,-3.64253 -2.62673,-1.97004 -3.55775,-5.15042 -4.26557,-8.21791 -0.18733,-0.81182 -0.54472,-1.91347 -0.80789,-2.77603 m -0.88704,9.17268 5.46379,5.9605 -5.46379,5.9605 -5.9605,-5.9605 5.9605,-5.9605 m -68.54575,3.64252 c -2.07029,0.63259 -3.80727,2.051 -5.9605,2.64912 -5.420695,1.50574 -10.905155,1.72904 -16.391372,0.66227 -1.652266,-0.32127 -6.990076,-3.12962 -8.195687,-1.40734 -0.650933,0.92991 0.01925,2.18406 0.745063,2.81468 1.539578,1.33767 4.983696,2.07308 6.953915,2.48354 6.613149,1.37774 13.067939,0.52832 19.371631,-1.5729 1.86902,-0.62301 5.18822,-1.4451 6.20885,-3.31139 1.11767,-2.04374 -1.14993,-2.80136 -2.7319,-2.31798 m 22.84858,14.23897 c 0,5.2345 0.45278,10.79998 1.6557,15.89467 0.50633,2.14448 2.50038,3.73262 1.32455,5.9605 -5.3467,10.1306 -20.17121,14.79323 -30.79591,13.90783 -4.269158,-0.35577 -9.204734,-1.13151 -12.334922,-4.47037 -3.641654,-3.88443 -2.553247,-10.05827 -3.063037,-14.90125 l 0.496708,-0.49671 c 11.210876,2.06516 23.520001,-0.42971 32.782751,-7.11948 3.6291,-2.62102 6.56322,-6.02849 9.93416,-8.77519 z"
       id="path3"
       sodipodi:nodetypes="cscsssssssssssssscscsssssssssssssssssssssssssscsssccsssscsssssssssccsscsssssscscscsscsscssscccccccccsssssccssssccssssssccssssssccssccccsssssssssssscccccssssssssssssccsccsssssccssssssssssssssscccccccsssssssccssssccsc" /></g></svg>
