<?xml version="1.0" encoding="UTF-8" standalone="no"?>
<!-- Created with Inkscape (http://www.inkscape.org/) -->

<svg
   width="210mm"
   height="210mm"
   viewBox="0 0 210 210"
   version="1.1"
   id="svg1"
   xml:space="preserve"
   inkscape:version="1.4.2 (ebf0e940, 2025-05-08)"
   sodipodi:docname="moreprojects.svg"
   xmlns:inkscape="http://www.inkscape.org/namespaces/inkscape"
   xmlns:sodipodi="http://sodipodi.sourceforge.net/DTD/sodipodi-0.dtd"
   xmlns="http://www.w3.org/2000/svg"
   xmlns:svg="http://www.w3.org/2000/svg"><sodipodi:namedview
     id="namedview1"
     pagecolor="#ffffff"
     bordercolor="#000000"
     borderopacity="0.25"
     inkscape:showpageshadow="2"
     inkscape:pageopacity="0.0"
     inkscape:pagecheckerboard="0"
     inkscape:deskcolor="#d1d1d1"
     inkscape:document-units="mm"
     inkscape:zoom="0.74759174"
     inkscape:cx="422.6906"
     inkscape:cy="113.02961"
     inkscape:window-width="1440"
     inkscape:window-height="872"
     inkscape:window-x="0"
     inkscape:window-y="28"
     inkscape:window-maximized="0"
     inkscape:current-layer="layer1" /><defs
     id="defs1" /><g
     inkscape:label="Layer 1"
     inkscape:groupmode="layer"
     id="layer1"><path
       style="display:inline;fill:#1b1b1a;stroke:none"
       d="m 57.018879,130.15929 c -1.070206,1.76521 -2.066638,5.79001 -0.280448,6.98269 1.585604,1.05874 6.204307,3.41493 10.258114,5.26263 -1.883766,1.77259 -4.405913,3.7625 -6.349424,5.51795 -3.800224,3.4325 -7.940111,6.88743 -11.262669,10.80914 -1.129871,1.33361 -5.36715,5.17595 -3.174712,7.1053 2.127913,1.87257 5.118779,-3.61465 6.273837,-4.83765 4.094748,-4.33561 8.594752,-8.50214 13.152377,-12.3965 1.376766,-1.17641 2.97606,-3.12322 4.535303,-3.40148 1.310225,-0.23382 4.850118,1.99391 6.398811,2.957 5.394392,3.35462 13.370358,9.32617 17.638293,12.84098 3.095917,2.54961 -2.909213,13.00696 -4.535303,15.87356 -0.639818,1.12792 -3.124159,4.06856 -0.83147,4.91324 2.083447,0.76758 3.474231,-2.15568 4.308538,-3.55265 2.50016,-4.18631 4.686477,-9.07393 4.686477,-14.05944 3.406247,0.98602 8.046927,7.90006 11.791787,6.65177 2.01037,-0.67012 3.58794,-2.90577 5.44236,-3.93059 1.49863,4.97377 3.34708,10.6248 3.9306,15.87356 0.33287,2.99417 -0.13915,6.08441 0.15118,9.0706 0.18478,1.90066 0.87998,4.69015 3.17471,4.91325 2.69714,0.26221 5.51093,-4.45086 6.95413,-6.27384 5.63488,-7.11773 11.31569,-15.70164 13.75708,-24.49063 1.76004,-6.33612 1.6871,-12.5799 1.05824,-19.04827 -0.24383,-2.50799 -2.37254,-7.19938 -1.43617,-9.52413 0.99923,-2.48086 3.77931,-5.05848 5.36676,-7.25649 3.18929,-4.41594 6.27354,-9.22115 8.69267,-14.05943 8.74292,-17.485817 16.76209,-40.14947 17.30974,-59.865993 0.30745,-11.069027 1.24075,-21.861271 1.00879,-33.067012 -0.0634,-3.065477 0.24612,-8.912932 -3.27644,-10.698655 -1.81299,-0.919078 -5.78834,0.30664 -7.71002,0.680296 -7.91448,1.538913 -15.90867,4.677875 -23.13004,8.08796 -21.53492,10.169247 -40.49489,21.767333 -55.17952,41.346834 -4.969366,6.625821 -9.10275,13.972559 -12.774431,21.31592 -1.559699,3.119398 -2.680414,8.349535 -5.140011,10.809135 -1.350691,1.350695 -4.017731,1.211818 -5.820306,1.587356 -3.647577,0.759913 -7.479568,1.491135 -10.884726,3.099128 -9.50938,4.490541 -16.871949,13.164711 -22.676513,21.693861 -1.763254,2.5909 -8.829525,11.50653 -5.366776,14.3618 2.332703,1.92346 6.611889,-0.8498 8.995018,-1.51179 8.326947,-2.31302 16.266799,-3.77941 24.944164,-3.77941 M 170.85498,53.966216 159.97025,45.953853 140.46845,34.162067 131.39784,29.475584 c 8.47329,-5.351541 19.0025,-8.583539 28.57241,-11.640605 2.25114,-0.719118 8.08043,-3.37666 10.35561,-1.738537 1.68237,1.211306 1.45909,7.408137 1.57861,9.317717 0.28113,4.491666 0.22388,9.196612 0.005,14.07164 -0.23362,5.202826 0.0386,10.198379 -1.05446,14.480417 M 69.264196,49.430914 c 2.940376,-1.509918 0.992935,-4.386488 2.796773,-6.802954 1.513142,-2.027045 3.84783,-1.880279 5.820302,-3.174711 0.89713,-0.58874 1.883332,-2.006991 1.133826,-3.099128 -1.302142,-1.897414 -5.606423,-1.122919 -7.332075,-3.325879 -1.181735,-1.508603 -0.262128,-6.065455 -1.965295,-6.651786 -3.040576,-1.046754 -2.955504,5.601101 -4.535303,7.1809 -1.266111,1.266114 -5.289196,1.808709 -5.820306,3.250295 -0.414881,1.126103 0.334698,2.327332 1.285003,2.872363 1.986811,1.1395 4.230106,0.857788 5.744716,2.947946 1.572397,2.169909 0.983104,4.691439 2.872359,6.802954 m 68.029544,89.345456 c -2.83785,-0.99914 -5.57854,-2.53241 -6.73603,-4.86198 -1.99663,-4.01846 0.28239,-11.1198 3.10778,-15.09335 1.55539,-2.18745 4.49042,-5.74894 6.80296,-7.02972 1.59742,-0.88472 4.08137,-0.10062 5.89589,-0.83147 4.49135,-1.80901 8.88941,-6.98658 9.57492,-11.795424 0.25664,-1.800359 -0.32454,-3.637173 -1.14404,-5.106371 -0.45892,-0.822763 -0.60169,-1.885706 -0.11615,-2.902361 1.57866,-3.305523 4.62236,-6.092998 5.59353,-9.977665 2.33338,-9.333549 -1.07982,-15.919758 -7.40765,-22.374162 -3.14972,-3.212718 -4.83003,-6.831036 -8.76826,-9.675302 -11.25679,-8.129898 -31.4444,-5.768476 -40.66655,4.459704 -3.947462,4.378087 -4.424448,9.498666 -5.744711,14.890914 -1.073997,4.386443 -4.260492,-1.411444 -5.144558,3.204542 -0.130995,0.683967 1.384057,1.554089 0.987194,2.237821 -1.339981,2.308573 -1.884687,4.661182 -1.587355,7.710013 0.212877,2.18283 1.486049,2.771926 1.209416,4.081772 -0.434154,2.055701 -1.728322,4.270116 -1.965303,6.349423 -0.51839,4.548428 -0.872106,9.574316 0,14.059436 0.596885,3.06969 1.531046,5.86171 3.023538,8.61708 1.937981,3.57781 5.067254,5.29374 3.174712,9.52413 -13.319364,-3.93378 -27.641191,-0.86523 -33.56124,12.69885 -7.202589,-1.3268 -3.212261,-7.25747 -1.965299,-12.24532 2.922366,-11.68945 7.182157,-22.95161 11.791791,-34.014766 7.810982,-18.746405 20.998411,-36.649001 37.340655,-48.90568 4.34637,-3.259777 10.55859,-8.573311 15.87356,-9.902068 1.47085,-0.367718 3.25107,0.998755 4.5353,1.587356 4.83284,2.215043 9.36667,4.779742 14.05944,7.256484 6.68006,3.525585 12.68193,7.860157 18.59474,12.623248 1.58172,1.27417 4.72819,2.88302 5.66913,4.686484 1.35935,2.605404 -0.74968,8.118866 -1.13383,10.884725 -1.49696,10.778235 -5.35514,21.482036 -8.91942,31.747117 -3.42047,9.8509 -8.6945,19.64387 -14.81533,28.11887 -2.39342,3.31398 -5.54246,6.49484 -7.55883,9.97767 M 71.985378,38.092658 68.810666,39.906779 66.089484,37.639128 c 1.682985,-2.37147 4.774774,-2.604048 5.895894,0.45353 M 28.965833,67.421759 c 4.593459,1.134926 7.186031,1.901343 8.929186,5.592726 0.69441,1.470513 0.605004,5.323665 2.34324,5.820309 1.931684,0.55191 3.056292,-6.971463 4.535303,-8.54149 1.758388,-1.866591 6.992744,-2.311692 7.93678,-4.081772 0.525352,-0.985039 -0.246014,-1.790066 -1.133826,-2.11647 -2.59636,-0.954548 -5.707969,-0.771699 -7.558837,-3.325893 -1.618364,-2.23334 -1.068072,-5.061413 -2.418829,-7.293106 -2.777574,1.932011 -3.48139,5.493086 -5.139505,8.078115 -1.929723,1.724724 -4.42977,2.308799 -6.652282,3.447944 -3.292781,1.426272 -2.257358,1.81074 -0.841267,2.419625 m 77.941414,-7.559638 -0.45353,3.174711 9.0706,-1.814121 -1.81412,3.628242 c 4.2986,1.244343 8.60884,-0.737803 12.69885,-1.814121 l -1.36059,5.442363 18.59474,-2.721181 v 21.31592 l -5.45257,-2.27008 c -2.48847,-2.117908 -4.68043,-3.345376 -7.2263,-4.341736 -3.13031,-1.319106 -8.26339,-1.625317 -8.7345,-1.4218 -3.50948,0.615755 -3.14063,2.02032 -5.04536,1.083234 -2.01426,-0.990974 -3.70974,-0.378003 -3.96548,-0.632712 -1.38215,-1.376563 -3.37081,-3.759313 -5.66454,-5.277553 -2.53481,-1.453165 -5.19655,-2.335193 -7.903686,-3.012911 1.427106,-3.873609 2.778686,-10.042065 7.256486,-11.338255 m -66.099266,1.236293 c 1.537073,1.177941 1.922506,2.947983 3.12201,4.475286 0.21597,0.328119 0.425121,-0.08496 0.04965,0.148534 -1.648958,1.675059 -1.901168,2.121166 -3.750227,3.399879 -1.581134,-1.488793 -2.788356,-1.535371 -3.58827,-3.414774 1.082888,-1.867582 2.863345,-3.071075 4.174662,-4.629006 m 60.872711,10.006711 c 0.83802,0.544734 3.52092,1.259815 4.7652,1.778272 1.01151,0.421475 1.77811,0.899157 2.72118,1.436188 1.40348,0.7992 2.9066,-0.0051 2.04089,-1.738537 -1.37026,-2.743665 -10.83777,-5.7879 -10.00215,-2.114513 m -3.830531,3.097157 c 3.063891,-0.675852 11.097991,3.110283 12.472081,5.820309 1.47632,2.911615 -2.51609,8.244553 -5.21559,8.91943 -5.11497,1.278744 -9.908096,-3.002901 -9.977673,-8.012369 -0.02523,-1.816682 0.487329,-6.234615 2.721182,-6.72737 m 28.118881,1.511772 c -4.23931,3.126541 5.0325,3.325607 6.48331,4.192499 1.01364,0.605672 2.55862,2.651063 3.8723,2.005743 1.93097,-0.948541 0.20854,-3.222628 -0.83148,-4.081772 -1.71965,-1.42059 -7.3913,-3.262475 -9.52413,-2.11647 m -23.13004,2.267651 c -2.520957,1.315277 -2.500681,8.792366 0.90706,7.256484 3.02971,-1.365504 3.1834,-9.390642 -0.90706,-7.256484 m 14.51296,5.215598 c -0.71044,3.856661 -1.84102,7.155101 0.0756,10.884725 2.7438,5.339257 10.87176,7.146315 15.79797,3.930598 3.37689,-2.204358 4.59201,-5.380336 5.8959,-8.91943 l 4.08177,1.81412 c -0.12315,1.559938 -2.22154,4.21757 -0.45353,5.366772 1.36026,0.884162 3.55563,-2.056491 4.98883,-2.494416 5.67492,-1.733997 6.43892,5.310988 4.38412,8.919431 -1.42636,2.50483 -3.73192,5.46829 -6.65177,6.19825 -1.81744,0.45436 -4.3368,-0.51901 -5.89589,0.68029 -6.22936,4.79181 -9.92802,10.87232 -18.14121,12.92561 -2.42014,0.60504 -4.77622,0.60471 -7.25649,0.60471 -17.861465,0 -22.586439,-19.83895 -18.400087,-34.300929 2.794509,2.878364 6.715857,2.949469 10.236547,3.007343 -1.13687,3.600069 -1.22406,5.860205 2.72118,7.558839 1.28495,0.553238 6.00704,2.372187 6.5006,0.151175 0.45813,-2.061599 -6.63035,-2.002991 -7.10531,-4.081772 -0.59095,-2.586411 4.41867,-10.081538 5.14001,-13.152377 1.36558,0.121646 2.81086,0.0089 4.08177,0.907061 m 5.44237,-0.831477 c 3.58761,-0.747421 11.7865,1.462225 13.37914,4.913249 1.34092,2.905586 -3.63165,8.15416 -6.12266,8.91943 -3.26016,1.001561 -8.5673,-0.139223 -9.97766,-3.477068 -1.25801,-2.977267 -1.3591,-9.505546 2.72118,-10.355611 m 3.62824,2.796779 c -2.86973,1.039765 -3.53111,8.735868 0.45353,7.407658 3.49509,-1.165029 3.91773,-8.991457 -0.45353,-7.407658 m 21.76945,12.3209 c -1.93456,0.967281 -5.24891,7.332518 -1.36059,5.442358 1.16695,-0.56726 3.37445,-2.636431 3.85501,-3.855003 0.64148,-1.626649 -1.34682,-2.161154 -2.49442,-1.587355 m -81.181919,2.040886 -6.651776,20.408862 -2.494417,7.48325 -8.995018,0.22676 c -7.601626,0.7901 -14.866687,3.09474 -22.222983,4.98883 1.025294,-3.89611 4.306194,-7.63699 6.651778,-10.88472 4.685622,-6.48778 10.42061,-12.9498 17.387171,-17.12726 4.874893,-2.9232 10.428448,-4.526109 16.325245,-5.095722 m 54.423639,8.617072 c -0.70986,-1.4513 -5.41925,0.78043 -7.91983,0.37766 -4.18486,-0.67405 -7.26483,-3.44279 -10.33817,-5.02066 -3.183804,-1.63458 -0.4806,3.05739 0.57032,4.11388 3.6726,3.69207 15.53392,6.71988 17.68768,0.52912 m 7.71001,14.05944 c -0.9401,4.23295 -1.27297,8.46589 -1.36059,12.69884 -7.63213,1.40594 -13.78369,2.88265 -21.31592,-0.15116 -4.87458,-1.96338 -7.438993,-6.84326 -4.5353,-11.64062 6.3246,2.33011 12.13217,4.29903 19.04827,2.57001 2.94194,-0.73549 5.39808,-2.45822 8.16354,-3.47707 m -31.293591,5.89589 c -1.304709,10.11139 16.038991,13.01942 23.130051,11.64062 2.35476,-0.45788 5.82182,-2.22549 8.16354,-1.96532 2.08952,0.23218 4.09966,2.93796 5.89589,3.93061 -0.46024,4.3724 -7.43756,9.25168 -10.43119,12.24531 -3.67096,3.67096 -7.50603,6.97155 -11.33826,10.4312 -1.01378,0.91523 -2.60313,3.45653 -4.08177,3.47706 -1.15538,0.0161 -2.74983,-1.74781 -3.62824,-2.41882 -2.70693,-2.06779 -5.463122,-4.04713 -8.163552,-6.12266 -9.777281,-7.51473 -19.982367,-14.16196 -30.386527,-19.87974 4.00311,-11.01428 14.712901,-12.3318 21.882351,-12.40145 3.469251,-0.0337 6.44184,0.0371 8.957707,1.06319 m 72.111311,29.933 c 4.72426,0 2.64449,-3.80513 4.68649,-6.80296 0.48484,-0.71179 0.98595,-1.89334 2.24892,-2.23099 1.94929,-0.52113 4.59554,-1.15005 4.68351,-2.31777 0.11667,-1.54869 -2.11745,-0.37662 -4.50498,-1.03231 -0.84786,-0.23285 -1.28847,-1.27569 -1.88786,-2.04511 -1.87516,-2.40706 -0.54611,-5.36047 -2.50489,-6.66002 -0.72116,-0.47845 -1.6149,-0.0415 -2.04089,0.6803 -0.9796,1.65988 -0.18858,3.76105 -1.66294,5.44236 -1.25204,1.42777 -6.27384,2.1898 -6.27384,4.08177 0,1.88429 3.80598,1.59378 4.98883,2.72118 1.9563,1.86459 2.20086,5.62498 2.26765,8.16355 m -29.47946,-16.32709 c 0,6.03369 1.50461,11.99487 0.90706,18.14121 -0.75891,7.80597 -4.93022,14.78814 -8.91943,21.31592 -2.30214,3.76714 -5.37179,9.56284 -9.22178,11.79178 -0.75434,-6.34543 -0.13469,-12.58517 -2.41883,-19.04827 l -2.49441,-9.0706 5.8203,-5.89589 9.52413,-9.52414 6.80296,-7.71001 m 31.74712,2.26765 2.26765,2.72118 -2.26765,3.17471 h -0.90706 l -2.72119,-2.72118 v -0.45353 l 3.2829,-2.67801 M 68.810666,158.50493 c -1.946036,0.95805 -3.638906,4.44689 -4.988833,6.12266 -4.601378,5.71206 -8.880753,11.78203 -13.227965,17.68768 -0.598812,0.81348 -5.116018,7.72291 -0.831473,6.65177 2.349494,-0.58737 4.451719,-5.28052 5.820306,-7.1053 4.882582,-6.51011 10.94658,-12.93447 15.042086,-19.95533 0.800021,-1.37147 0.576868,-4.57858 -1.814121,-3.40148 m 12.245317,7.71002 c -3.467614,1.63181 -7.970834,10.03896 -9.826488,13.37914 -0.833888,1.501 -0.909074,4.38361 1.662943,3.55266 1.305187,-0.42169 2.154325,-2.47561 2.872356,-3.55266 2.092907,-3.13937 5.479913,-6.5052 6.878545,-9.97767 0.467966,-1.16184 0.500589,-4.38404 -1.587356,-3.40147 z"
       id="path1"
       sodipodi:nodetypes="cscssssssssssscscsssssssscssssssssssssccccccssssccsssssssssccsssssssssssssssssssccsssssssssssccccccsssssscccccccccccccccssccccccccccsssccsssccsssccsccssccsssssssccssscccsssccsccssccccccssccssscccscsccsscsscsscsccssssssssssccssccccccccccccccssssscssssss" /></g></svg>
